<?xml version="1.0" encoding="UTF-8"?>
<svg width="559px" height="612px" viewBox="0 0 559 612" version="1.1" xmlns="http://www.w3.org/2000/svg" xmlns:xlink="http://www.w3.org/1999/xlink">
    <title>X</title>
    <g id="NEXT.exchange-logo" stroke="none" stroke-width="1" fill="none" fill-rule="evenodd">
        <g id="Custom-Preset" transform="translate(-495.000000, -447.000000)" fill="#202020" fill-rule="nonzero">
            <g id="X" transform="translate(495.287453, 447.562091)">
                <g id="Group" transform="translate(144.322802, 445.745315) scale(-1, 1) rotate(51.853422) translate(-144.322802, -445.745315) translate(-27.934611, 397.522990)">
                    <path d="M75.2814411,-2.84217094e-14 L303.409024,-2.84217094e-14 C314.454719,-7.66360485e-14 323.409024,8.954305 323.409024,20 C323.409024,24.4755787 321.907842,28.8218232 319.14566,32.3433507 L268.866498,96.4446514 L268.866498,96.4446514 L4.26325641e-14,95.9769029 L75.2814411,-2.84217094e-14 Z" id="Path"></path>
                </g>
                <g id="Group" transform="translate(153.212547, 164.937909) scale(-1, 1) translate(-153.212547, -164.937909) translate(14.712547, 62.437909)">
                    <path d="M156.676956,0 L236.247457,0 C247.293152,1.21817935e-14 256.247457,8.954305 256.247457,20 C256.247457,24.4289184 254.777368,28.732566 252.067775,32.235911 L118.446825,205 L118.446825,205 L-1.09344632e-14,205 L156.676956,0 Z" id="Path"></path>
                </g>
                <g id="Group" transform="translate(420.690562, 128.844092) scale(-1, 1) rotate(127.767559) translate(-420.690562, -128.844092) translate(349.551903, 10.291212)">
                    <path d="M41.0615421,2.84217094e-14 L142.277319,2.84217094e-14 L87.0400357,198.681595 C84.0813388,209.323658 73.055745,215.552256 62.4136827,212.593559 C58.2600673,211.438775 54.5907796,208.972758 51.9526516,205.563017 L-8.52651283e-14,138.415006 L-8.52651283e-14,138.415006 L41.0615421,2.84217094e-14 Z" id="Path"></path>
                </g>
                <g id="Group" transform="translate(406.325727, 476.433115) scale(-1, 1) rotate(125.913506) translate(-406.325727, -476.433115) translate(278.870024, 425.825856)">
                    <path d="M28.8483458,-2.84217094e-14 L183.501508,-2.84217094e-14 L243.578932,83.0863397 C246.815006,87.5617911 245.810293,93.8132182 241.334842,97.0492928 C239.656502,98.2628537 237.642761,98.9253574 235.571733,98.9453072 L-4.97379915e-14,101.214517 L-4.97379915e-14,101.214517 L28.8483458,-2.84217094e-14 Z" id="Path"></path>
                </g>
            </g>
        </g>
    </g>
</svg>
